# xmcd CD database file
#
# Track frame offsets:
#	150
#	20965
#	37012
#	51822
#	71112
#	93160
#	108907
#	124292
#	145700
#	160122
#	177095
#	199087
#	218047
#	231842
#	256077
#
# Disc length: 3677 seconds
#
# Revision: 3
# Processed by: cddbd v1.5.2PL0 Copyright (c) Steve Scherf et al.
# Submitted via: jetAudio 5
#
DISCID=d20e5b0f
DTITLE=Blues Etilicos - Aguas Barrentas - Ao Vivo
DYEAR=2001
DGENRE=Blues
TTITLE0=Louco da cidade
TTITLE1=Cerveja
TTITLE2=Luz de Maluco
TTITLE3=Na Pele
TTITLE4=Misty Mountain
TTITLE5=Dente de Ouro
TTITLE6=Miss Coke
TTITLE7=Pelicano
TTITLE8=Canceriano sem Lar (Clinica Tobias Blues)
TTITLE9=Camelo
TTITLE10=Pega ma Beibe
TTITLE11=It's My Soul
TTITLE12=Terceiro Whisky
TTITLE13=Aguas Barrentas
TTITLE14=O Sol Tambem me Levanta
EXTD=YEAR: 2001 ID3G:   0
EXTT0=
EXTT1=
EXTT2=
EXTT3=
EXTT4=
EXTT5=
EXTT6=
EXTT7=
EXTT8=
EXTT9=
EXTT10=
EXTT11=
EXTT12=
EXTT13=
EXTT14=
PLAYORDER=
